<svg width="20" height="20" viewBox="0 0 20 20" fill="none" xmlns="http://www.w3.org/2000/svg">
<path d="M6.69404 16.9994C6.69404 17.8394 6.82404 18.6594 7.06404 19.4194C3.22404 18.0894 0.324044 14.5594 0.0240442 10.4294C-0.275956 6.03938 2.25404 1.93938 6.34404 0.219384C7.40404 -0.220616 7.94404 0.099384 8.17404 0.329384C8.39404 0.549384 8.70404 1.07938 8.26404 2.08938C7.81404 3.12938 7.59404 4.22938 7.59404 5.36938C7.60404 7.40938 8.40404 9.29938 9.70404 10.7494C7.87404 12.2094 6.69404 14.4694 6.69404 16.9994Z" fill="white"/>
<path d="M18.9041 15.7194C16.9241 18.4094 13.7841 19.9894 10.4341 19.9894C10.2741 19.9894 10.1141 19.9794 9.95409 19.9694C8.95409 19.9294 7.98409 19.7394 7.06409 19.4194C6.82409 18.6594 6.69409 17.8394 6.69409 16.9994C6.69409 14.4694 7.87409 12.2094 9.70409 10.7494C11.1741 12.3994 13.2841 13.4694 15.6141 13.5694C16.2441 13.5994 16.8741 13.5494 17.4941 13.4394C18.6141 13.2394 19.0641 13.6594 19.2241 13.9294C19.3941 14.1994 19.5741 14.7894 18.9041 15.7194Z" fill="white"/>
</svg>
