<svg width="328" height="100" viewBox="0 0 328 100" fill="none" xmlns="http://www.w3.org/2000/svg">
<path d="M135.434 65H125.448V36.832H135.516C138.349 36.832 140.788 37.3959 142.833 38.5237C144.878 39.6424 146.45 41.2516 147.551 43.3513C148.66 45.4511 149.215 47.9635 149.215 50.8885C149.215 53.8227 148.66 56.3442 147.551 58.4531C146.45 60.5621 144.869 62.1804 142.806 63.3083C140.752 64.4361 138.294 65 135.434 65ZM131.404 59.8973H135.186C136.946 59.8973 138.427 59.5855 139.628 58.962C140.839 58.3294 141.747 57.3528 142.352 56.0324C142.966 54.7029 143.273 52.9883 143.273 50.8885C143.273 48.8071 142.966 47.1062 142.352 45.7858C141.747 44.4654 140.843 43.4935 139.642 42.87C138.441 42.2464 136.96 41.9347 135.2 41.9347H131.404V59.8973ZM159.541 65.3989C158.193 65.3989 156.992 65.165 155.937 64.6974C154.883 64.2206 154.048 63.5192 153.434 62.5931C152.829 61.6578 152.526 60.4933 152.526 59.0996C152.526 57.9259 152.742 56.9402 153.173 56.1425C153.604 55.3448 154.19 54.7029 154.933 54.2169C155.676 53.731 156.519 53.3642 157.464 53.1166C158.417 52.8691 159.417 52.6948 160.462 52.594C161.691 52.4656 162.681 52.3464 163.433 52.2364C164.185 52.1172 164.731 51.943 165.07 51.7137C165.409 51.4845 165.579 51.1452 165.579 50.6959V50.6134C165.579 49.7423 165.304 49.0684 164.753 48.5916C164.212 48.1148 163.442 47.8764 162.443 47.8764C161.388 47.8764 160.549 48.1102 159.926 48.5778C159.302 49.0363 158.89 49.614 158.688 50.3108L153.269 49.8707C153.544 48.587 154.085 47.4775 154.892 46.5423C155.699 45.5978 156.739 44.8734 158.014 44.3691C159.298 43.8557 160.783 43.5989 162.47 43.5989C163.644 43.5989 164.767 43.7365 165.84 44.0115C166.922 44.2866 167.88 44.713 168.715 45.2906C169.558 45.8683 170.223 46.611 170.709 47.5188C171.195 48.4174 171.438 49.4948 171.438 50.7509V65H165.881V62.0704H165.716C165.377 62.7306 164.923 63.3129 164.355 63.8172C163.786 64.3123 163.103 64.702 162.305 64.9862C161.508 65.2613 160.586 65.3989 159.541 65.3989ZM161.219 61.3552C162.081 61.3552 162.842 61.1856 163.502 60.8463C164.162 60.4979 164.68 60.0303 165.056 59.4434C165.432 58.8566 165.62 58.1918 165.62 57.4491V55.2072C165.437 55.3264 165.184 55.4364 164.863 55.5373C164.552 55.629 164.199 55.7161 163.804 55.7986C163.41 55.872 163.016 55.9408 162.622 56.0049C162.227 56.06 161.87 56.1104 161.549 56.1562C160.861 56.2571 160.26 56.4176 159.747 56.6376C159.234 56.8577 158.835 57.1557 158.55 57.5316C158.266 57.8984 158.124 58.3569 158.124 58.907C158.124 59.7047 158.413 60.3145 158.991 60.7363C159.577 61.1489 160.32 61.3552 161.219 61.3552ZM175.984 65V43.874H181.664V47.56H181.884C182.269 46.2488 182.915 45.2586 183.823 44.5892C184.731 43.9107 185.776 43.5714 186.959 43.5714C187.253 43.5714 187.569 43.5897 187.908 43.6264C188.247 43.6631 188.545 43.7135 188.802 43.7777V48.9767C188.527 48.8942 188.147 48.8208 187.661 48.7566C187.175 48.6924 186.73 48.6604 186.326 48.6604C185.465 48.6604 184.694 48.8483 184.016 49.2243C183.346 49.591 182.815 50.1045 182.42 50.7647C182.035 51.4249 181.843 52.1859 181.843 53.0479V65H175.984ZM197.14 58.9208L197.154 51.8925H198.007L204.774 43.874H211.5L202.408 54.492H201.019L197.14 58.9208ZM191.831 65V36.832H197.691V65H191.831ZM205.035 65L198.818 55.7986L202.725 51.6587L211.898 65H205.035ZM223.448 36.832H230.793L238.55 55.7574H238.88L246.637 36.832H253.982V65H248.205V46.666H247.971L240.682 64.8625H236.748L229.459 46.5973H229.225V65H223.448V36.832ZM268.324 65.4126C266.187 65.4126 264.34 64.9587 262.781 64.051C261.231 63.1341 260.035 61.8595 259.191 60.2274C258.348 58.5861 257.926 56.6835 257.926 54.5195C257.926 52.3372 258.348 50.43 259.191 48.7979C260.035 47.1566 261.231 45.8821 262.781 44.9743C264.34 44.0574 266.187 43.5989 268.324 43.5989C270.46 43.5989 272.303 44.0574 273.853 44.9743C275.412 45.8821 276.613 47.1566 277.456 48.7979C278.3 50.43 278.722 52.3372 278.722 54.5195C278.722 56.6835 278.3 58.5861 277.456 60.2274C276.613 61.8595 275.412 63.1341 273.853 64.051C272.303 64.9587 270.46 65.4126 268.324 65.4126ZM268.351 60.8738C269.323 60.8738 270.135 60.5987 270.786 60.0486C271.437 59.4893 271.927 58.7282 272.257 57.7654C272.597 56.8027 272.766 55.7069 272.766 54.4783C272.766 53.2496 272.597 52.1538 272.257 51.1911C271.927 50.2283 271.437 49.4672 270.786 48.9079C270.135 48.3486 269.323 48.0689 268.351 48.0689C267.37 48.0689 266.545 48.3486 265.876 48.9079C265.215 49.4672 264.716 50.2283 264.376 51.1911C264.046 52.1538 263.881 53.2496 263.881 54.4783C263.881 55.7069 264.046 56.8027 264.376 57.7654C264.716 58.7282 265.215 59.4893 265.876 60.0486C266.545 60.5987 267.37 60.8738 268.351 60.8738ZM290.316 65.3438C288.712 65.3438 287.258 64.9312 285.956 64.106C284.663 63.2716 283.637 62.0475 282.875 60.4337C282.124 58.8107 281.748 56.821 281.748 54.4645C281.748 52.0438 282.137 50.0312 282.917 48.4265C283.696 46.8127 284.732 45.607 286.025 44.8093C287.327 44.0024 288.753 43.5989 290.303 43.5989C291.485 43.5989 292.471 43.8006 293.26 44.2041C294.057 44.5984 294.699 45.0935 295.185 45.6895C295.68 46.2763 296.056 46.854 296.313 47.4225H296.492V36.832H302.337V65H296.561V61.6165H296.313C296.038 62.2034 295.648 62.7856 295.144 63.3633C294.649 63.9318 294.002 64.404 293.205 64.7799C292.416 65.1559 291.453 65.3438 290.316 65.3438ZM292.173 60.6813C293.118 60.6813 293.915 60.4245 294.566 59.9111C295.226 59.3884 295.731 58.6594 296.079 57.7242C296.437 56.7889 296.616 55.6932 296.616 54.437C296.616 53.1808 296.441 52.0897 296.093 51.1636C295.745 50.2375 295.24 49.5223 294.58 49.018C293.92 48.5136 293.118 48.2615 292.173 48.2615C291.21 48.2615 290.399 48.5228 289.739 49.0455C289.078 49.5681 288.579 50.2925 288.239 51.2186C287.9 52.1447 287.731 53.2175 287.731 54.437C287.731 55.6657 287.9 56.7522 288.239 57.6967C288.588 58.6319 289.088 59.3655 289.739 59.8973C290.399 60.4199 291.21 60.6813 292.173 60.6813ZM316.782 65.4126C314.609 65.4126 312.739 64.9725 311.171 64.0922C309.612 63.2028 308.411 61.9466 307.567 60.3237C306.724 58.6915 306.302 56.7614 306.302 54.5333C306.302 52.3602 306.724 50.4529 307.567 48.8116C308.411 47.1703 309.598 45.8912 311.129 44.9743C312.67 44.0574 314.476 43.5989 316.548 43.5989C317.942 43.5989 319.24 43.8236 320.441 44.2729C321.651 44.713 322.706 45.3778 323.604 46.2672C324.512 47.1566 325.218 48.2752 325.722 49.6231C326.227 50.9618 326.479 52.5298 326.479 54.327V55.9362H308.64V52.3051H320.963C320.963 51.4616 320.78 50.7143 320.413 50.0633C320.047 49.4122 319.538 48.9033 318.887 48.5366C318.245 48.1606 317.497 47.9727 316.645 47.9727C315.755 47.9727 314.967 48.179 314.279 48.5916C313.601 48.995 313.069 49.5406 312.684 50.2283C312.299 50.9068 312.101 51.6633 312.092 52.4977V55.9499C312.092 56.9952 312.285 57.8984 312.67 58.6594C313.064 59.4205 313.619 60.0073 314.334 60.4199C315.049 60.8326 315.897 61.0389 316.879 61.0389C317.53 61.0389 318.126 60.9472 318.667 60.7638C319.208 60.5804 319.671 60.3053 320.056 59.9386C320.441 59.5718 320.734 59.1225 320.936 58.5907L326.355 58.9483C326.08 60.2503 325.516 61.3873 324.663 62.3592C323.82 63.322 322.729 64.0739 321.39 64.6149C320.06 65.1467 318.524 65.4126 316.782 65.4126Z" fill="#2477F8"/>
<circle cx="50" cy="50" r="50" fill="#2477F8"/>
<path d="M76.6288 65.9583C70.8554 73.5194 61.9066 78 52.0918 78C51.5145 78 51.2258 78 50.6485 78C47.7618 78 44.8751 77.4399 42.2771 76.5998C31.3076 72.9593 22.9361 62.8779 22.0701 51.3962C21.2041 38.7944 28.4209 27.3128 40.2564 22.5521C43.4317 21.432 44.8751 22.2721 45.4524 22.8322C46.0298 23.3923 46.8958 25.0725 45.7411 27.8729C44.2977 30.6733 43.7204 33.7537 43.7204 37.1142C43.7204 42.715 46.0298 48.0358 49.7825 52.2363C54.1125 56.997 60.1746 59.7974 66.814 60.0775C68.546 60.0775 70.5667 60.0775 72.2988 59.7974C75.4741 59.2373 76.9175 60.3575 77.2062 61.1976C78.0722 61.7577 78.6495 63.4379 76.6288 65.9583Z" fill="white"/>
</svg>
