<?xml version="1.0" encoding="utf-8"?>
<!-- Generator: Adobe Illustrator 25.4.2, SVG Export Plug-In . SVG Version: 6.00 Build 0)  -->
<svg version="1.1" id="Layer_1" xmlns="http://www.w3.org/2000/svg" xmlns:xlink="http://www.w3.org/1999/xlink" x="0px" y="0px"
	 viewBox="0 0 20 20" style="enable-background:new 0 0 20 20;" xml:space="preserve">
<style type="text/css">
	.st0{fill:#2477F8;}
</style>
<g>
	<path class="st0" d="M18.9,15.7c-2,2.7-5.1,4.3-8.5,4.3c-0.2,0-0.3,0-0.5,0c-1,0-2-0.2-2.9-0.5c-3.8-1.3-6.7-4.9-7-9
		C-0.3,6,2.2,1.9,6.3,0.2c1.1-0.4,1.6-0.1,1.8,0.1c0.2,0.2,0.5,0.8,0.1,1.8c-0.5,1-0.7,2.1-0.7,3.3c0,2,0.8,3.9,2.1,5.4
		c1.5,1.7,3.6,2.7,5.9,2.8c0.6,0,1.3,0,1.9-0.1c1.1-0.2,1.6,0.2,1.7,0.5C19.4,14.2,19.6,14.8,18.9,15.7z"/>
</g>
</svg>
