<svg width="22" height="22" viewBox="0 0 22 22" fill="none" xmlns="http://www.w3.org/2000/svg">
<path d="M11 18C14.866 18 18 14.866 18 11C18 7.13401 14.866 4 11 4C7.13401 4 4 7.13401 4 11C4 14.866 7.13401 18 11 18Z" fill="white"/>
<path d="M11 21.96C10.45 21.96 10 21.55 10 21V20.92C10 20.37 10.45 19.92 11 19.92C11.55 19.92 12 20.37 12 20.92C12 21.47 11.55 21.96 11 21.96ZM18.14 19.14C17.88 19.14 17.63 19.04 17.43 18.85L17.3 18.72C16.91 18.33 16.91 17.7 17.3 17.31C17.69 16.92 18.32 16.92 18.71 17.31L18.84 17.44C19.23 17.83 19.23 18.46 18.84 18.85C18.65 19.04 18.4 19.14 18.14 19.14ZM3.86 19.14C3.6 19.14 3.35 19.04 3.15 18.85C2.76 18.46 2.76 17.83 3.15 17.44L3.28 17.31C3.67 16.92 4.3 16.92 4.69 17.31C5.08 17.7 5.08 18.33 4.69 18.72L4.56 18.85C4.37 19.04 4.11 19.14 3.86 19.14ZM21 12H20.92C20.37 12 19.92 11.55 19.92 11C19.92 10.45 20.37 10 20.92 10C21.47 10 21.96 10.45 21.96 11C21.96 11.55 21.55 12 21 12ZM1.08 12H1C0.45 12 0 11.55 0 11C0 10.45 0.45 10 1 10C1.55 10 2.04 10.45 2.04 11C2.04 11.55 1.63 12 1.08 12ZM18.01 4.99C17.75 4.99 17.5 4.89 17.3 4.7C16.91 4.31 16.91 3.68 17.3 3.29L17.43 3.16C17.82 2.77 18.45 2.77 18.84 3.16C19.23 3.55 19.23 4.18 18.84 4.57L18.71 4.7C18.52 4.89 18.27 4.99 18.01 4.99ZM3.99 4.99C3.73 4.99 3.48 4.89 3.28 4.7L3.15 4.56C2.76 4.17 2.76 3.54 3.15 3.15C3.54 2.76 4.17 2.76 4.56 3.15L4.69 3.28C5.08 3.67 5.08 4.3 4.69 4.69C4.5 4.89 4.24 4.99 3.99 4.99ZM11 2.04C10.45 2.04 10 1.63 10 1.08V1C10 0.45 10.45 0 11 0C11.55 0 12 0.45 12 1C12 1.55 11.55 2.04 11 2.04Z" fill="white"/>
</svg>
