<svg width="336" height="100" viewBox="0 0 336 100" fill="none" xmlns="http://www.w3.org/2000/svg">
<path d="M125.448 65V36.832H131.404V60.0899H143.48V65H125.448ZM147.313 65V43.874H153.173V65H147.313ZM150.257 41.1507C149.386 41.1507 148.638 40.8619 148.015 40.2842C147.401 39.6974 147.093 38.9959 147.093 38.1799C147.093 37.373 147.401 36.6807 148.015 36.103C148.638 35.5162 149.386 35.2228 150.257 35.2228C151.128 35.2228 151.871 35.5162 152.485 36.103C153.108 36.6807 153.42 37.373 153.42 38.1799C153.42 38.9959 153.108 39.6974 152.485 40.2842C151.871 40.8619 151.128 41.1507 150.257 41.1507ZM167.384 73.3624C165.486 73.3624 163.858 73.1011 162.501 72.5784C161.153 72.0649 160.081 71.3635 159.283 70.4741C158.485 69.5846 157.967 68.5852 157.729 67.4757L163.148 66.7467C163.313 67.1685 163.574 67.5628 163.932 67.9296C164.289 68.2964 164.761 68.5898 165.348 68.8098C165.944 69.0391 166.669 69.1537 167.521 69.1537C168.796 69.1537 169.846 68.8419 170.671 68.2184C171.505 67.6041 171.923 66.5725 171.923 65.1238V61.2589H171.675C171.418 61.8458 171.033 62.4005 170.52 62.9232C170.006 63.4458 169.346 63.8722 168.539 64.2023C167.732 64.5324 166.77 64.6974 165.651 64.6974C164.065 64.6974 162.62 64.3306 161.318 63.5971C160.026 62.8544 158.994 61.722 158.224 60.1999C157.463 58.6686 157.082 56.7339 157.082 54.3957C157.082 52.0026 157.472 50.0037 158.251 48.399C159.031 46.7944 160.067 45.5932 161.36 44.7955C162.662 43.9978 164.088 43.5989 165.637 43.5989C166.82 43.5989 167.81 43.8006 168.608 44.2041C169.406 44.5984 170.048 45.0935 170.534 45.6895C171.029 46.2763 171.409 46.854 171.675 47.4225H171.895V43.874H177.713V65.2063C177.713 67.0035 177.273 68.5072 176.393 69.7176C175.512 70.9279 174.293 71.8357 172.734 72.4409C171.185 73.0552 169.401 73.3624 167.384 73.3624ZM167.508 60.2962C168.452 60.2962 169.25 60.0623 169.901 59.5947C170.561 59.1179 171.065 58.4394 171.414 57.5591C171.771 56.6697 171.95 55.6061 171.95 54.3682C171.95 53.1304 171.776 52.0576 171.428 51.1498C171.079 50.2329 170.575 49.5223 169.915 49.018C169.254 48.5136 168.452 48.2615 167.508 48.2615C166.545 48.2615 165.733 48.5228 165.073 49.0455C164.413 49.5589 163.913 50.2741 163.574 51.1911C163.235 52.108 163.065 53.1671 163.065 54.3682C163.065 55.5877 163.235 56.6422 163.574 57.5316C163.922 58.4119 164.422 59.095 165.073 59.581C165.733 60.0578 166.545 60.2962 167.508 60.2962ZM188.235 52.7865V65H182.376V36.832H188.07V47.6013H188.317C188.794 46.3543 189.564 45.3778 190.628 44.6717C191.692 43.9565 193.026 43.5989 194.63 43.5989C196.097 43.5989 197.377 43.9198 198.468 44.5617C199.568 45.1944 200.421 46.1067 201.026 47.2987C201.64 48.4816 201.943 49.8982 201.934 51.5487V65H196.075V52.594C196.084 51.2919 195.754 50.2787 195.084 49.5544C194.424 48.83 193.498 48.4678 192.306 48.4678C191.508 48.4678 190.802 48.6374 190.188 48.9767C189.583 49.316 189.106 49.8111 188.757 50.4621C188.418 51.104 188.244 51.8788 188.235 52.7865ZM217.782 43.874V48.2752H205.059V43.874H217.782ZM207.948 38.8126H213.807V58.5082C213.807 59.0491 213.889 59.4709 214.054 59.7735C214.219 60.0669 214.449 60.2732 214.742 60.3924C215.045 60.5116 215.393 60.5712 215.787 60.5712C216.062 60.5712 216.337 60.5483 216.613 60.5025C216.888 60.4475 217.099 60.4062 217.245 60.3787L218.167 64.7387C217.873 64.8304 217.461 64.9358 216.929 65.055C216.397 65.1834 215.751 65.2613 214.99 65.2888C213.578 65.3438 212.34 65.1559 211.276 64.7249C210.222 64.294 209.401 63.6246 208.814 62.7169C208.227 61.8091 207.938 60.6629 207.948 59.2784V38.8126ZM230.672 36.832H238.017L245.774 55.7574H246.104L253.862 36.832H261.206V65H255.43V46.666H255.196L247.906 64.8625H243.973L236.683 46.5973H236.449V65H230.672V36.832ZM275.548 65.4126C273.412 65.4126 271.564 64.9587 270.005 64.051C268.456 63.1341 267.259 61.8595 266.415 60.2274C265.572 58.5861 265.15 56.6835 265.15 54.5195C265.15 52.3372 265.572 50.43 266.415 48.7979C267.259 47.1566 268.456 45.8821 270.005 44.9743C271.564 44.0574 273.412 43.5989 275.548 43.5989C277.685 43.5989 279.528 44.0574 281.077 44.9743C282.636 45.8821 283.837 47.1566 284.681 48.7979C285.524 50.43 285.946 52.3372 285.946 54.5195C285.946 56.6835 285.524 58.5861 284.681 60.2274C283.837 61.8595 282.636 63.1341 281.077 64.051C279.528 64.9587 277.685 65.4126 275.548 65.4126ZM275.576 60.8738C276.548 60.8738 277.359 60.5987 278.01 60.0486C278.661 59.4893 279.152 58.7282 279.482 57.7654C279.821 56.8027 279.991 55.7069 279.991 54.4783C279.991 53.2496 279.821 52.1538 279.482 51.1911C279.152 50.2283 278.661 49.4672 278.01 48.9079C277.359 48.3486 276.548 48.0689 275.576 48.0689C274.594 48.0689 273.769 48.3486 273.1 48.9079C272.44 49.4672 271.94 50.2283 271.601 51.1911C271.271 52.1538 271.106 53.2496 271.106 54.4783C271.106 55.7069 271.271 56.8027 271.601 57.7654C271.94 58.7282 272.44 59.4893 273.1 60.0486C273.769 60.5987 274.594 60.8738 275.576 60.8738ZM297.541 65.3438C295.936 65.3438 294.483 64.9312 293.181 64.106C291.888 63.2716 290.861 62.0475 290.1 60.4337C289.348 58.8107 288.972 56.821 288.972 54.4645C288.972 52.0438 289.362 50.0312 290.141 48.4265C290.92 46.8127 291.956 45.607 293.249 44.8093C294.551 44.0024 295.977 43.5989 297.527 43.5989C298.71 43.5989 299.695 43.8006 300.484 44.2041C301.282 44.5984 301.923 45.0935 302.409 45.6895C302.905 46.2763 303.281 46.854 303.537 47.4225H303.716V36.832H309.561V65H303.785V61.6165H303.537C303.262 62.2034 302.873 62.7856 302.368 63.3633C301.873 63.9318 301.227 64.404 300.429 64.7799C299.64 65.1559 298.678 65.3438 297.541 65.3438ZM299.397 60.6813C300.342 60.6813 301.14 60.4245 301.791 59.9111C302.451 59.3884 302.955 58.6594 303.303 57.7242C303.661 56.7889 303.84 55.6932 303.84 54.437C303.84 53.1808 303.666 52.0897 303.317 51.1636C302.969 50.2375 302.464 49.5223 301.804 49.018C301.144 48.5136 300.342 48.2615 299.397 48.2615C298.435 48.2615 297.623 48.5228 296.963 49.0455C296.303 49.5681 295.803 50.2925 295.464 51.2186C295.124 52.1447 294.955 53.2175 294.955 54.437C294.955 55.6657 295.124 56.7522 295.464 57.6967C295.812 58.6319 296.312 59.3655 296.963 59.8973C297.623 60.4199 298.435 60.6813 299.397 60.6813ZM324.007 65.4126C321.833 65.4126 319.963 64.9725 318.395 64.0922C316.836 63.2028 315.635 61.9466 314.791 60.3237C313.948 58.6915 313.526 56.7614 313.526 54.5333C313.526 52.3602 313.948 50.4529 314.791 48.8116C315.635 47.1703 316.822 45.8912 318.354 44.9743C319.894 44.0574 321.7 43.5989 323.773 43.5989C325.166 43.5989 326.464 43.8236 327.665 44.2729C328.875 44.713 329.93 45.3778 330.828 46.2672C331.736 47.1566 332.442 48.2752 332.947 49.6231C333.451 50.9618 333.703 52.5298 333.703 54.327V55.9362H315.864V52.3051H328.188C328.188 51.4616 328.004 50.7143 327.638 50.0633C327.271 49.4122 326.762 48.9033 326.111 48.5366C325.469 48.1606 324.722 47.9727 323.869 47.9727C322.98 47.9727 322.191 48.179 321.503 48.5916C320.825 48.995 320.293 49.5406 319.908 50.2283C319.523 50.9068 319.326 51.6633 319.316 52.4977V55.9499C319.316 56.9952 319.509 57.8984 319.894 58.6594C320.288 59.4205 320.843 60.0073 321.558 60.4199C322.274 60.8326 323.122 61.0389 324.103 61.0389C324.754 61.0389 325.35 60.9472 325.891 60.7638C326.432 60.5804 326.895 60.3053 327.28 59.9386C327.665 59.5718 327.958 59.1225 328.16 58.5907L333.579 58.9483C333.304 60.2503 332.74 61.3873 331.888 62.3592C331.044 63.322 329.953 64.0739 328.614 64.6149C327.285 65.1467 325.749 65.4126 324.007 65.4126Z" fill="white"/>
<circle cx="50" cy="50" r="50" fill="white"/>
<path d="M50.0776 69.8269C60.9855 69.8269 69.8281 60.9843 69.8281 50.0764C69.8281 39.1686 60.9855 30.326 50.0776 30.326C39.1697 30.326 30.3271 39.1686 30.3271 50.0764C30.3271 60.9843 39.1697 69.8269 50.0776 69.8269Z" fill="#2477F8"/>
<path d="M50.0765 81C48.5246 81 47.255 79.8432 47.255 78.2914V78.0656C47.255 76.5138 48.5246 75.2442 50.0765 75.2442C51.6283 75.2442 52.898 76.5138 52.898 78.0656C52.898 79.6175 51.6283 81 50.0765 81ZM70.2219 73.0434C69.4883 73.0434 68.783 72.7612 68.2187 72.2252L67.8519 71.8584C66.7515 70.758 66.7515 68.9804 67.8519 67.8801C68.9523 66.7797 70.7298 66.7797 71.8302 67.8801L72.197 68.2469C73.2974 69.3472 73.2974 71.1248 72.197 72.2252C71.6609 72.7612 70.9555 73.0434 70.2219 73.0434ZM29.931 73.0434C29.1974 73.0434 28.492 72.7612 27.9277 72.2252C26.8274 71.1248 26.8274 69.3472 27.9277 68.2469L28.2945 67.8801C29.3949 66.7797 31.1725 66.7797 32.2728 67.8801C33.3732 68.9804 33.3732 70.758 32.2728 71.8584L31.906 72.2252C31.37 72.7612 30.6364 73.0434 29.931 73.0434ZM78.2914 52.8979H78.0657C76.5139 52.8979 75.2442 51.6283 75.2442 50.0764C75.2442 48.5246 76.5139 47.2549 78.0657 47.2549C79.6175 47.2549 81 48.5246 81 50.0764C81 51.6283 79.8432 52.8979 78.2914 52.8979ZM22.0873 52.8979H21.8615C20.3097 52.8979 19.04 51.6283 19.04 50.0764C19.04 48.5246 20.3097 47.2549 21.8615 47.2549C23.4134 47.2549 24.7959 48.5246 24.7959 50.0764C24.7959 51.6283 23.6391 52.8979 22.0873 52.8979ZM69.8551 33.1193C69.1216 33.1193 68.4162 32.8371 67.8519 32.301C66.7515 31.2006 66.7515 29.4231 67.8519 28.3227L68.2187 27.9559C69.3191 26.8555 71.0966 26.8555 72.197 27.9559C73.2974 29.0563 73.2974 30.8338 72.197 31.9342L71.8302 32.301C71.2941 32.8371 70.5887 33.1193 69.8551 33.1193ZM30.2978 33.1193C29.5642 33.1193 28.8588 32.8371 28.2945 32.301L27.9277 31.906C26.8274 30.8056 26.8274 29.0281 27.9277 27.9277C29.0281 26.8273 30.8057 26.8273 31.906 27.9277L32.2728 28.2945C33.3732 29.3949 33.3732 31.1724 32.2728 32.2728C31.7368 32.8371 31.0032 33.1193 30.2978 33.1193ZM50.0765 24.7958C48.5246 24.7958 47.255 23.639 47.255 22.0872V21.8615C47.255 20.3097 48.5246 19.04 50.0765 19.04C51.6283 19.04 52.898 20.3097 52.898 21.8615C52.898 23.4133 51.6283 24.7958 50.0765 24.7958Z" fill="#2477F8"/>
</svg>
