<svg width="576" height="576" viewBox="0 0 576 576" fill="none" xmlns="http://www.w3.org/2000/svg">
<rect width="576" height="576" fill="#343669"/>
<path fill-rule="evenodd" clip-rule="evenodd" d="M576 267.469V576H239.966C239.242 567.683 238.873 559.265 238.873 550.761C238.873 391.951 367.613 263.211 526.422 263.211C543.329 263.211 559.894 264.67 576 267.469Z" fill="#3D3F7C"/>
<path fill-rule="evenodd" clip-rule="evenodd" d="M0 308.531V-3.05176e-05H336.034C336.757 8.3168 337.127 16.735 337.127 25.2394C337.127 184.049 208.386 312.789 49.5773 312.789C32.6711 312.789 16.1056 311.33 0 308.531Z" fill="#3D3F7C"/>
<g clip-path="url(#clip0_5_13161)">
<path d="M487.306 88.338H88.338V487.306H487.306V88.338Z" fill="white"/>
<path d="M217.733 109.904H206.95V120.687H217.733V109.904Z" fill="#343669"/>
<path d="M239.299 109.904H228.516V120.687H239.299V109.904Z" fill="#343669"/>
<path d="M250.082 109.904H239.299V120.687H250.082V109.904Z" fill="#343669"/>
<path d="M282.43 109.904H271.648V120.687H282.43V109.904Z" fill="#343669"/>
<path d="M303.996 109.904H293.213V120.687H303.996V109.904Z" fill="#343669"/>
<path d="M314.779 109.904H303.996V120.687H314.779V109.904Z" fill="#343669"/>
<path d="M325.562 109.904H314.779V120.687H325.562V109.904Z" fill="#343669"/>
<path d="M336.345 109.904H325.562V120.687H336.345V109.904Z" fill="#343669"/>
<path d="M357.911 109.904H347.128V120.687H357.911V109.904Z" fill="#343669"/>
<path d="M379.477 109.904H368.694V120.687H379.477V109.904Z" fill="#343669"/>
<path d="M206.95 120.687H196.167V131.47H206.95V120.687Z" fill="#343669"/>
<path d="M228.516 120.687H217.733V131.47H228.516V120.687Z" fill="#343669"/>
<path d="M250.082 120.687H239.299V131.47H250.082V120.687Z" fill="#343669"/>
<path d="M271.648 120.687H260.865V131.47H271.648V120.687Z" fill="#343669"/>
<path d="M314.779 120.687H303.996V131.47H314.779V120.687Z" fill="#343669"/>
<path d="M347.128 120.687H336.345V131.47H347.128V120.687Z" fill="#343669"/>
<path d="M357.911 120.687H347.128V131.47H357.911V120.687Z" fill="#343669"/>
<path d="M206.95 131.47H196.167V142.253H206.95V131.47Z" fill="#343669"/>
<path d="M217.733 131.47H206.95V142.253H217.733V131.47Z" fill="#343669"/>
<path d="M228.516 131.47H217.733V142.253H228.516V131.47Z" fill="#343669"/>
<path d="M239.299 131.47H228.516V142.253H239.299V131.47Z" fill="#343669"/>
<path d="M260.865 131.47H250.082V142.253H260.865V131.47Z" fill="#343669"/>
<path d="M271.648 131.47H260.865V142.253H271.648V131.47Z" fill="#343669"/>
<path d="M282.43 131.47H271.648V142.253H282.43V131.47Z" fill="#343669"/>
<path d="M293.213 131.47H282.43V142.253H293.213V131.47Z" fill="#343669"/>
<path d="M314.779 131.47H303.996V142.253H314.779V131.47Z" fill="#343669"/>
<path d="M325.562 131.47H314.779V142.253H325.562V131.47Z" fill="#343669"/>
<path d="M347.128 131.47H336.345V142.253H347.128V131.47Z" fill="#343669"/>
<path d="M379.477 131.47H368.694V142.253H379.477V131.47Z" fill="#343669"/>
<path d="M206.95 142.253H196.167V153.035H206.95V142.253Z" fill="#343669"/>
<path d="M217.733 142.253H206.95V153.035H217.733V142.253Z" fill="#343669"/>
<path d="M228.516 142.253H217.733V153.035H228.516V142.253Z" fill="#343669"/>
<path d="M271.648 142.253H260.865V153.035H271.648V142.253Z" fill="#343669"/>
<path d="M314.779 142.253H303.996V153.035H314.779V142.253Z" fill="#343669"/>
<path d="M347.128 142.253H336.345V153.035H347.128V142.253Z" fill="#343669"/>
<path d="M357.911 142.253H347.128V153.035H357.911V142.253Z" fill="#343669"/>
<path d="M368.694 142.253H357.911V153.035H368.694V142.253Z" fill="#343669"/>
<path d="M379.477 142.253H368.694V153.035H379.477V142.253Z" fill="#343669"/>
<path d="M206.95 153.035H196.167V163.818H206.95V153.035Z" fill="#343669"/>
<path d="M217.733 153.035H206.95V163.818H217.733V153.035Z" fill="#343669"/>
<path d="M239.299 153.035H228.516V163.818H239.299V153.035Z" fill="#343669"/>
<path d="M250.082 153.035H239.299V163.818H250.082V153.035Z" fill="#343669"/>
<path d="M260.865 153.035H250.082V163.818H260.865V153.035Z" fill="#343669"/>
<path d="M271.648 153.035H260.865V163.818H271.648V153.035Z" fill="#343669"/>
<path d="M303.996 153.035H293.213V163.818H303.996V153.035Z" fill="#343669"/>
<path d="M325.562 153.035H314.779V163.818H325.562V153.035Z" fill="#343669"/>
<path d="M347.128 153.035H336.345V163.818H347.128V153.035Z" fill="#343669"/>
<path d="M357.911 153.035H347.128V163.818H357.911V153.035Z" fill="#343669"/>
<path d="M368.694 153.035H357.911V163.818H368.694V153.035Z" fill="#343669"/>
<path d="M379.477 153.035H368.694V163.818H379.477V153.035Z" fill="#343669"/>
<path d="M206.95 163.818H196.167V174.601H206.95V163.818Z" fill="#343669"/>
<path d="M228.516 163.818H217.733V174.601H228.516V163.818Z" fill="#343669"/>
<path d="M239.299 163.818H228.516V174.601H239.299V163.818Z" fill="#343669"/>
<path d="M260.865 163.818H250.082V174.601H260.865V163.818Z" fill="#343669"/>
<path d="M282.43 163.818H271.648V174.601H282.43V163.818Z" fill="#343669"/>
<path d="M303.996 163.818H293.213V174.601H303.996V163.818Z" fill="#343669"/>
<path d="M314.779 163.818H303.996V174.601H314.779V163.818Z" fill="#343669"/>
<path d="M336.345 163.818H325.562V174.601H336.345V163.818Z" fill="#343669"/>
<path d="M357.911 163.818H347.128V174.601H357.911V163.818Z" fill="#343669"/>
<path d="M379.477 163.818H368.694V174.601H379.477V163.818Z" fill="#343669"/>
<path d="M206.95 174.601H196.167V185.384H206.95V174.601Z" fill="#343669"/>
<path d="M228.516 174.601H217.733V185.384H228.516V174.601Z" fill="#343669"/>
<path d="M250.082 174.601H239.299V185.384H250.082V174.601Z" fill="#343669"/>
<path d="M271.648 174.601H260.865V185.384H271.648V174.601Z" fill="#343669"/>
<path d="M293.213 174.601H282.43V185.384H293.213V174.601Z" fill="#343669"/>
<path d="M314.779 174.601H303.996V185.384H314.779V174.601Z" fill="#343669"/>
<path d="M336.345 174.601H325.562V185.384H336.345V174.601Z" fill="#343669"/>
<path d="M357.911 174.601H347.128V185.384H357.911V174.601Z" fill="#343669"/>
<path d="M379.477 174.601H368.694V185.384H379.477V174.601Z" fill="#343669"/>
<path d="M228.516 185.384H217.733V196.167H228.516V185.384Z" fill="#343669"/>
<path d="M239.299 185.384H228.516V196.167H239.299V185.384Z" fill="#343669"/>
<path d="M250.082 185.384H239.299V196.167H250.082V185.384Z" fill="#343669"/>
<path d="M260.865 185.384H250.082V196.167H260.865V185.384Z" fill="#343669"/>
<path d="M282.43 185.384H271.648V196.167H282.43V185.384Z" fill="#343669"/>
<path d="M293.213 185.384H282.43V196.167H293.213V185.384Z" fill="#343669"/>
<path d="M303.996 185.384H293.213V196.167H303.996V185.384Z" fill="#343669"/>
<path d="M314.779 185.384H303.996V196.167H314.779V185.384Z" fill="#343669"/>
<path d="M336.345 185.384H325.562V196.167H336.345V185.384Z" fill="#343669"/>
<path d="M142.253 196.167H131.47V206.95H142.253V196.167Z" fill="#343669"/>
<path d="M174.601 196.167H163.818V206.95H174.601V196.167Z" fill="#343669"/>
<path d="M185.384 196.167H174.601V206.95H185.384V196.167Z" fill="#343669"/>
<path d="M196.167 196.167H185.384V206.95H196.167V196.167Z" fill="#343669"/>
<path d="M206.95 196.167H196.167V206.95H206.95V196.167Z" fill="#343669"/>
<path d="M217.733 196.167H206.95V206.95H217.733V196.167Z" fill="#343669"/>
<path d="M228.516 196.167H217.733V206.95H228.516V196.167Z" fill="#343669"/>
<path d="M239.299 196.167H228.516V206.95H239.299V196.167Z" fill="#343669"/>
<path d="M260.865 196.167H250.082V206.95H260.865V196.167Z" fill="#343669"/>
<path d="M282.43 196.167H271.648V206.95H282.43V196.167Z" fill="#343669"/>
<path d="M293.213 196.167H282.43V206.95H293.213V196.167Z" fill="#343669"/>
<path d="M314.779 196.167H303.996V206.95H314.779V196.167Z" fill="#343669"/>
<path d="M368.694 196.167H357.911V206.95H368.694V196.167Z" fill="#343669"/>
<path d="M390.26 196.167H379.477V206.95H390.26V196.167Z" fill="#343669"/>
<path d="M411.825 196.167H401.042V206.95H411.825V196.167Z" fill="#343669"/>
<path d="M422.608 196.167H411.825V206.95H422.608V196.167Z" fill="#343669"/>
<path d="M433.391 196.167H422.608V206.95H433.391V196.167Z" fill="#343669"/>
<path d="M444.174 196.167H433.391V206.95H444.174V196.167Z" fill="#343669"/>
<path d="M454.957 196.167H444.174V206.95H454.957V196.167Z" fill="#343669"/>
<path d="M131.47 206.95H120.687V217.733H131.47V206.95Z" fill="#343669"/>
<path d="M163.818 206.95H153.036V217.733H163.818V206.95Z" fill="#343669"/>
<path d="M174.601 206.95H163.818V217.733H174.601V206.95Z" fill="#343669"/>
<path d="M217.733 206.95H206.95V217.733H217.733V206.95Z" fill="#343669"/>
<path d="M250.082 206.95H239.299V217.733H250.082V206.95Z" fill="#343669"/>
<path d="M293.213 206.95H282.43V217.733H293.213V206.95Z" fill="#343669"/>
<path d="M303.996 206.95H293.213V217.733H303.996V206.95Z" fill="#343669"/>
<path d="M314.779 206.95H303.996V217.733H314.779V206.95Z" fill="#343669"/>
<path d="M347.128 206.95H336.345V217.733H347.128V206.95Z" fill="#343669"/>
<path d="M368.694 206.95H357.911V217.733H368.694V206.95Z" fill="#343669"/>
<path d="M379.477 206.95H368.694V217.733H379.477V206.95Z" fill="#343669"/>
<path d="M390.26 206.95H379.477V217.733H390.26V206.95Z" fill="#343669"/>
<path d="M401.043 206.95H390.26V217.733H401.043V206.95Z" fill="#343669"/>
<path d="M411.825 206.95H401.042V217.733H411.825V206.95Z" fill="#343669"/>
<path d="M433.391 206.95H422.608V217.733H433.391V206.95Z" fill="#343669"/>
<path d="M454.957 206.95H444.174V217.733H454.957V206.95Z" fill="#343669"/>
<path d="M465.74 206.95H454.957V217.733H465.74V206.95Z" fill="#343669"/>
<path d="M131.47 217.733H120.687V228.516H131.47V217.733Z" fill="#343669"/>
<path d="M142.253 217.733H131.47V228.516H142.253V217.733Z" fill="#343669"/>
<path d="M174.601 217.733H163.818V228.516H174.601V217.733Z" fill="#343669"/>
<path d="M185.384 217.733H174.601V228.516H185.384V217.733Z" fill="#343669"/>
<path d="M217.733 217.733H206.95V228.516H217.733V217.733Z" fill="#343669"/>
<path d="M228.516 217.733H217.733V228.516H228.516V217.733Z" fill="#343669"/>
<path d="M282.43 217.733H271.648V228.516H282.43V217.733Z" fill="#343669"/>
<path d="M293.213 217.733H282.43V228.516H293.213V217.733Z" fill="#343669"/>
<path d="M314.779 217.733H303.996V228.516H314.779V217.733Z" fill="#343669"/>
<path d="M336.345 217.733H325.562V228.516H336.345V217.733Z" fill="#343669"/>
<path d="M368.694 217.733H357.911V228.516H368.694V217.733Z" fill="#343669"/>
<path d="M379.477 217.733H368.694V228.516H379.477V217.733Z" fill="#343669"/>
<path d="M411.825 217.733H401.042V228.516H411.825V217.733Z" fill="#343669"/>
<path d="M422.608 217.733H411.825V228.516H422.608V217.733Z" fill="#343669"/>
<path d="M444.174 217.733H433.391V228.516H444.174V217.733Z" fill="#343669"/>
<path d="M465.74 217.733H454.957V228.516H465.74V217.733Z" fill="#343669"/>
<path d="M120.687 228.516H109.904V239.299H120.687V228.516Z" fill="#343669"/>
<path d="M131.47 228.516H120.687V239.299H131.47V228.516Z" fill="#343669"/>
<path d="M163.818 228.516H153.036V239.299H163.818V228.516Z" fill="#343669"/>
<path d="M174.601 228.516H163.818V239.299H174.601V228.516Z" fill="#343669"/>
<path d="M206.95 228.516H196.167V239.299H206.95V228.516Z" fill="#343669"/>
<path d="M260.865 228.516H250.082V239.299H260.865V228.516Z" fill="#343669"/>
<path d="M282.43 228.516H271.648V239.299H282.43V228.516Z" fill="#343669"/>
<path d="M303.996 228.516H293.213V239.299H303.996V228.516Z" fill="#343669"/>
<path d="M325.562 228.516H314.779V239.299H325.562V228.516Z" fill="#343669"/>
<path d="M336.345 228.516H325.562V239.299H336.345V228.516Z" fill="#343669"/>
<path d="M347.128 228.516H336.345V239.299H347.128V228.516Z" fill="#343669"/>
<path d="M368.694 228.516H357.911V239.299H368.694V228.516Z" fill="#343669"/>
<path d="M379.477 228.516H368.694V239.299H379.477V228.516Z" fill="#343669"/>
<path d="M401.043 228.516H390.26V239.299H401.043V228.516Z" fill="#343669"/>
<path d="M411.825 228.516H401.042V239.299H411.825V228.516Z" fill="#343669"/>
<path d="M433.391 228.516H422.608V239.299H433.391V228.516Z" fill="#343669"/>
<path d="M454.957 228.516H444.174V239.299H454.957V228.516Z" fill="#343669"/>
<path d="M465.74 228.516H454.957V239.299H465.74V228.516Z" fill="#343669"/>
<path d="M120.687 239.299H109.904V250.082H120.687V239.299Z" fill="#343669"/>
<path d="M131.47 239.299H120.687V250.082H131.47V239.299Z" fill="#343669"/>
<path d="M153.036 239.299H142.253V250.082H153.036V239.299Z" fill="#343669"/>
<path d="M185.384 239.299H174.601V250.082H185.384V239.299Z" fill="#343669"/>
<path d="M196.167 239.299H185.384V250.082H196.167V239.299Z" fill="#343669"/>
<path d="M250.082 239.299H239.299V250.082H250.082V239.299Z" fill="#343669"/>
<path d="M271.648 239.299H260.865V250.082H271.648V239.299Z" fill="#343669"/>
<path d="M282.43 239.299H271.648V250.082H282.43V239.299Z" fill="#343669"/>
<path d="M325.562 239.299H314.779V250.082H325.562V239.299Z" fill="#343669"/>
<path d="M347.128 239.299H336.345V250.082H347.128V239.299Z" fill="#343669"/>
<path d="M379.477 239.299H368.694V250.082H379.477V239.299Z" fill="#343669"/>
<path d="M401.043 239.299H390.26V250.082H401.043V239.299Z" fill="#343669"/>
<path d="M411.825 239.299H401.042V250.082H411.825V239.299Z" fill="#343669"/>
<path d="M433.391 239.299H422.608V250.082H433.391V239.299Z" fill="#343669"/>
<path d="M465.74 239.299H454.957V250.082H465.74V239.299Z" fill="#343669"/>
<path d="M120.687 250.082H109.904V260.865H120.687V250.082Z" fill="#343669"/>
<path d="M131.47 250.082H120.687V260.865H131.47V250.082Z" fill="#343669"/>
<path d="M153.036 250.082H142.253V260.865H153.036V250.082Z" fill="#343669"/>
<path d="M163.818 250.082H153.036V260.865H163.818V250.082Z" fill="#343669"/>
<path d="M196.167 250.082H185.384V260.865H196.167V250.082Z" fill="#343669"/>
<path d="M217.733 250.082H206.95V260.865H217.733V250.082Z" fill="#343669"/>
<path d="M250.082 250.082H239.299V260.865H250.082V250.082Z" fill="#343669"/>
<path d="M260.865 250.082H250.082V260.865H260.865V250.082Z" fill="#343669"/>
<path d="M271.648 250.082H260.865V260.865H271.648V250.082Z" fill="#343669"/>
<path d="M303.996 250.082H293.213V260.865H303.996V250.082Z" fill="#343669"/>
<path d="M314.779 250.082H303.996V260.865H314.779V250.082Z" fill="#343669"/>
<path d="M325.562 250.082H314.779V260.865H325.562V250.082Z" fill="#343669"/>
<path d="M336.345 250.082H325.562V260.865H336.345V250.082Z" fill="#343669"/>
<path d="M347.128 250.082H336.345V260.865H347.128V250.082Z" fill="#343669"/>
<path d="M368.694 250.082H357.911V260.865H368.694V250.082Z" fill="#343669"/>
<path d="M379.477 250.082H368.694V260.865H379.477V250.082Z" fill="#343669"/>
<path d="M401.043 250.082H390.26V260.865H401.043V250.082Z" fill="#343669"/>
<path d="M433.391 250.082H422.608V260.865H433.391V250.082Z" fill="#343669"/>
<path d="M444.174 250.082H433.391V260.865H444.174V250.082Z" fill="#343669"/>
<path d="M465.74 250.082H454.957V260.865H465.74V250.082Z" fill="#343669"/>
<path d="M131.47 260.865H120.687V271.648H131.47V260.865Z" fill="#343669"/>
<path d="M153.036 260.865H142.253V271.648H153.036V260.865Z" fill="#343669"/>
<path d="M163.818 260.865H153.036V271.648H163.818V260.865Z" fill="#343669"/>
<path d="M174.601 260.865H163.818V271.648H174.601V260.865Z" fill="#343669"/>
<path d="M185.384 260.865H174.601V271.648H185.384V260.865Z" fill="#343669"/>
<path d="M196.167 260.865H185.384V271.648H196.167V260.865Z" fill="#343669"/>
<path d="M217.733 260.865H206.95V271.648H217.733V260.865Z" fill="#343669"/>
<path d="M228.516 260.865H217.733V271.648H228.516V260.865Z" fill="#343669"/>
<path d="M260.865 260.865H250.082V271.648H260.865V260.865Z" fill="#343669"/>
<path d="M282.43 260.865H271.648V271.648H282.43V260.865Z" fill="#343669"/>
<path d="M303.996 260.865H293.213V271.648H303.996V260.865Z" fill="#343669"/>
<path d="M368.694 260.865H357.911V271.648H368.694V260.865Z" fill="#343669"/>
<path d="M379.477 260.865H368.694V271.648H379.477V260.865Z" fill="#343669"/>
<path d="M433.391 260.865H422.608V271.648H433.391V260.865Z" fill="#343669"/>
<path d="M465.74 260.865H454.957V271.648H465.74V260.865Z" fill="#343669"/>
<path d="M131.47 271.648H120.687V282.43H131.47V271.648Z" fill="#343669"/>
<path d="M174.601 271.648H163.818V282.43H174.601V271.648Z" fill="#343669"/>
<path d="M206.95 271.648H196.167V282.43H206.95V271.648Z" fill="#343669"/>
<path d="M217.733 271.648H206.95V282.43H217.733V271.648Z" fill="#343669"/>
<path d="M228.516 271.648H217.733V282.43H228.516V271.648Z" fill="#343669"/>
<path d="M271.648 271.648H260.865V282.43H271.648V271.648Z" fill="#343669"/>
<path d="M282.43 271.648H271.648V282.43H282.43V271.648Z" fill="#343669"/>
<path d="M314.779 271.648H303.996V282.43H314.779V271.648Z" fill="#343669"/>
<path d="M325.562 271.648H314.779V282.43H325.562V271.648Z" fill="#343669"/>
<path d="M357.911 271.648H347.128V282.43H357.911V271.648Z" fill="#343669"/>
<path d="M368.694 271.648H357.911V282.43H368.694V271.648Z" fill="#343669"/>
<path d="M390.26 271.648H379.477V282.43H390.26V271.648Z" fill="#343669"/>
<path d="M411.825 271.648H401.042V282.43H411.825V271.648Z" fill="#343669"/>
<path d="M422.608 271.648H411.825V282.43H422.608V271.648Z" fill="#343669"/>
<path d="M433.391 271.648H422.608V282.43H433.391V271.648Z" fill="#343669"/>
<path d="M465.74 271.648H454.957V282.43H465.74V271.648Z" fill="#343669"/>
<path d="M120.687 282.43H109.904V293.213H120.687V282.43Z" fill="#343669"/>
<path d="M131.47 282.43H120.687V293.213H131.47V282.43Z" fill="#343669"/>
<path d="M153.036 282.43H142.253V293.213H153.036V282.43Z" fill="#343669"/>
<path d="M174.601 282.43H163.818V293.213H174.601V282.43Z" fill="#343669"/>
<path d="M185.384 282.43H174.601V293.213H185.384V282.43Z" fill="#343669"/>
<path d="M206.95 282.43H196.167V293.213H206.95V282.43Z" fill="#343669"/>
<path d="M239.299 282.43H228.516V293.213H239.299V282.43Z" fill="#343669"/>
<path d="M250.082 282.43H239.299V293.213H250.082V282.43Z" fill="#343669"/>
<path d="M271.648 282.43H260.865V293.213H271.648V282.43Z" fill="#343669"/>
<path d="M282.43 282.43H271.648V293.213H282.43V282.43Z" fill="#343669"/>
<path d="M303.996 282.43H293.213V293.213H303.996V282.43Z" fill="#343669"/>
<path d="M314.779 282.43H303.996V293.213H314.779V282.43Z" fill="#343669"/>
<path d="M325.562 282.43H314.779V293.213H325.562V282.43Z" fill="#343669"/>
<path d="M357.911 282.43H347.128V293.213H357.911V282.43Z" fill="#343669"/>
<path d="M368.694 282.43H357.911V293.213H368.694V282.43Z" fill="#343669"/>
<path d="M401.043 282.43H390.26V293.213H401.043V282.43Z" fill="#343669"/>
<path d="M411.825 282.43H401.042V293.213H411.825V282.43Z" fill="#343669"/>
<path d="M433.391 282.43H422.608V293.213H433.391V282.43Z" fill="#343669"/>
<path d="M142.253 293.213H131.47V303.996H142.253V293.213Z" fill="#343669"/>
<path d="M163.818 293.213H153.036V303.996H163.818V293.213Z" fill="#343669"/>
<path d="M174.601 293.213H163.818V303.996H174.601V293.213Z" fill="#343669"/>
<path d="M196.167 293.213H185.384V303.996H196.167V293.213Z" fill="#343669"/>
<path d="M206.95 293.213H196.167V303.996H206.95V293.213Z" fill="#343669"/>
<path d="M228.516 293.213H217.733V303.996H228.516V293.213Z" fill="#343669"/>
<path d="M239.299 293.213H228.516V303.996H239.299V293.213Z" fill="#343669"/>
<path d="M260.865 293.213H250.082V303.996H260.865V293.213Z" fill="#343669"/>
<path d="M336.345 293.213H325.562V303.996H336.345V293.213Z" fill="#343669"/>
<path d="M347.128 293.213H336.345V303.996H347.128V293.213Z" fill="#343669"/>
<path d="M368.694 293.213H357.911V303.996H368.694V293.213Z" fill="#343669"/>
<path d="M401.043 293.213H390.26V303.996H401.043V293.213Z" fill="#343669"/>
<path d="M411.825 293.213H401.042V303.996H411.825V293.213Z" fill="#343669"/>
<path d="M444.174 293.213H433.391V303.996H444.174V293.213Z" fill="#343669"/>
<path d="M465.74 293.213H454.957V303.996H465.74V293.213Z" fill="#343669"/>
<path d="M142.253 303.996H131.47V314.779H142.253V303.996Z" fill="#343669"/>
<path d="M153.036 303.996H142.253V314.779H153.036V303.996Z" fill="#343669"/>
<path d="M163.818 303.996H153.036V314.779H163.818V303.996Z" fill="#343669"/>
<path d="M174.601 303.996H163.818V314.779H174.601V303.996Z" fill="#343669"/>
<path d="M185.384 303.996H174.601V314.779H185.384V303.996Z" fill="#343669"/>
<path d="M196.167 303.996H185.384V314.779H196.167V303.996Z" fill="#343669"/>
<path d="M217.733 303.996H206.95V314.779H217.733V303.996Z" fill="#343669"/>
<path d="M250.082 303.996H239.299V314.779H250.082V303.996Z" fill="#343669"/>
<path d="M271.648 303.996H260.865V314.779H271.648V303.996Z" fill="#343669"/>
<path d="M293.213 303.996H282.43V314.779H293.213V303.996Z" fill="#343669"/>
<path d="M303.996 303.996H293.213V314.779H303.996V303.996Z" fill="#343669"/>
<path d="M314.779 303.996H303.996V314.779H314.779V303.996Z" fill="#343669"/>
<path d="M325.562 303.996H314.779V314.779H325.562V303.996Z" fill="#343669"/>
<path d="M336.345 303.996H325.562V314.779H336.345V303.996Z" fill="#343669"/>
<path d="M368.694 303.996H357.911V314.779H368.694V303.996Z" fill="#343669"/>
<path d="M411.825 303.996H401.042V314.779H411.825V303.996Z" fill="#343669"/>
<path d="M422.608 303.996H411.825V314.779H422.608V303.996Z" fill="#343669"/>
<path d="M433.391 303.996H422.608V314.779H433.391V303.996Z" fill="#343669"/>
<path d="M444.174 303.996H433.391V314.779H444.174V303.996Z" fill="#343669"/>
<path d="M454.957 303.996H444.174V314.779H454.957V303.996Z" fill="#343669"/>
<path d="M465.74 303.996H454.957V314.779H465.74V303.996Z" fill="#343669"/>
<path d="M131.47 314.779H120.687V325.562H131.47V314.779Z" fill="#343669"/>
<path d="M174.601 314.779H163.818V325.562H174.601V314.779Z" fill="#343669"/>
<path d="M196.167 314.779H185.384V325.562H196.167V314.779Z" fill="#343669"/>
<path d="M206.95 314.779H196.167V325.562H206.95V314.779Z" fill="#343669"/>
<path d="M217.733 314.779H206.95V325.562H217.733V314.779Z" fill="#343669"/>
<path d="M239.299 314.779H228.516V325.562H239.299V314.779Z" fill="#343669"/>
<path d="M271.648 314.779H260.865V325.562H271.648V314.779Z" fill="#343669"/>
<path d="M325.562 314.779H314.779V325.562H325.562V314.779Z" fill="#343669"/>
<path d="M368.694 314.779H357.911V325.562H368.694V314.779Z" fill="#343669"/>
<path d="M390.26 314.779H379.477V325.562H390.26V314.779Z" fill="#343669"/>
<path d="M401.043 314.779H390.26V325.562H401.043V314.779Z" fill="#343669"/>
<path d="M411.825 314.779H401.042V325.562H411.825V314.779Z" fill="#343669"/>
<path d="M433.391 314.779H422.608V325.562H433.391V314.779Z" fill="#343669"/>
<path d="M465.74 314.779H454.957V325.562H465.74V314.779Z" fill="#343669"/>
<path d="M120.687 325.562H109.904V336.345H120.687V325.562Z" fill="#343669"/>
<path d="M131.47 325.562H120.687V336.345H131.47V325.562Z" fill="#343669"/>
<path d="M174.601 325.562H163.818V336.345H174.601V325.562Z" fill="#343669"/>
<path d="M185.384 325.562H174.601V336.345H185.384V325.562Z" fill="#343669"/>
<path d="M196.167 325.562H185.384V336.345H196.167V325.562Z" fill="#343669"/>
<path d="M217.733 325.562H206.95V336.345H217.733V325.562Z" fill="#343669"/>
<path d="M228.516 325.562H217.733V336.345H228.516V325.562Z" fill="#343669"/>
<path d="M271.648 325.562H260.865V336.345H271.648V325.562Z" fill="#343669"/>
<path d="M293.213 325.562H282.43V336.345H293.213V325.562Z" fill="#343669"/>
<path d="M303.996 325.562H293.213V336.345H303.996V325.562Z" fill="#343669"/>
<path d="M314.779 325.562H303.996V336.345H314.779V325.562Z" fill="#343669"/>
<path d="M325.562 325.562H314.779V336.345H325.562V325.562Z" fill="#343669"/>
<path d="M368.694 325.562H357.911V336.345H368.694V325.562Z" fill="#343669"/>
<path d="M379.477 325.562H368.694V336.345H379.477V325.562Z" fill="#343669"/>
<path d="M390.26 325.562H379.477V336.345H390.26V325.562Z" fill="#343669"/>
<path d="M401.043 325.562H390.26V336.345H401.043V325.562Z" fill="#343669"/>
<path d="M411.825 325.562H401.042V336.345H411.825V325.562Z" fill="#343669"/>
<path d="M454.957 325.562H444.174V336.345H454.957V325.562Z" fill="#343669"/>
<path d="M465.74 325.562H454.957V336.345H465.74V325.562Z" fill="#343669"/>
<path d="M131.47 336.345H120.687V347.128H131.47V336.345Z" fill="#343669"/>
<path d="M142.253 336.345H131.47V347.128H142.253V336.345Z" fill="#343669"/>
<path d="M163.818 336.345H153.036V347.128H163.818V336.345Z" fill="#343669"/>
<path d="M206.95 336.345H196.167V347.128H206.95V336.345Z" fill="#343669"/>
<path d="M250.082 336.345H239.299V347.128H250.082V336.345Z" fill="#343669"/>
<path d="M271.648 336.345H260.865V347.128H271.648V336.345Z" fill="#343669"/>
<path d="M282.43 336.345H271.648V347.128H282.43V336.345Z" fill="#343669"/>
<path d="M303.996 336.345H293.213V347.128H303.996V336.345Z" fill="#343669"/>
<path d="M314.779 336.345H303.996V347.128H314.779V336.345Z" fill="#343669"/>
<path d="M325.562 336.345H314.779V347.128H325.562V336.345Z" fill="#343669"/>
<path d="M347.128 336.345H336.345V347.128H347.128V336.345Z" fill="#343669"/>
<path d="M357.911 336.345H347.128V347.128H357.911V336.345Z" fill="#343669"/>
<path d="M379.477 336.345H368.694V347.128H379.477V336.345Z" fill="#343669"/>
<path d="M433.391 336.345H422.608V347.128H433.391V336.345Z" fill="#343669"/>
<path d="M465.74 336.345H454.957V347.128H465.74V336.345Z" fill="#343669"/>
<path d="M120.687 347.128H109.904V357.911H120.687V347.128Z" fill="#343669"/>
<path d="M131.47 347.128H120.687V357.911H131.47V347.128Z" fill="#343669"/>
<path d="M142.253 347.128H131.47V357.911H142.253V347.128Z" fill="#343669"/>
<path d="M185.384 347.128H174.601V357.911H185.384V347.128Z" fill="#343669"/>
<path d="M228.516 347.128H217.733V357.911H228.516V347.128Z" fill="#343669"/>
<path d="M260.865 347.128H250.082V357.911H260.865V347.128Z" fill="#343669"/>
<path d="M271.648 347.128H260.865V357.911H271.648V347.128Z" fill="#343669"/>
<path d="M293.213 347.128H282.43V357.911H293.213V347.128Z" fill="#343669"/>
<path d="M303.996 347.128H293.213V357.911H303.996V347.128Z" fill="#343669"/>
<path d="M336.345 347.128H325.562V357.911H336.345V347.128Z" fill="#343669"/>
<path d="M379.477 347.128H368.694V357.911H379.477V347.128Z" fill="#343669"/>
<path d="M390.26 347.128H379.477V357.911H390.26V347.128Z" fill="#343669"/>
<path d="M401.043 347.128H390.26V357.911H401.043V347.128Z" fill="#343669"/>
<path d="M465.74 347.128H454.957V357.911H465.74V347.128Z" fill="#343669"/>
<path d="M142.253 357.911H131.47V368.694H142.253V357.911Z" fill="#343669"/>
<path d="M153.036 357.911H142.253V368.694H153.036V357.911Z" fill="#343669"/>
<path d="M196.167 357.911H185.384V368.694H196.167V357.911Z" fill="#343669"/>
<path d="M206.95 357.911H196.167V368.694H206.95V357.911Z" fill="#343669"/>
<path d="M217.733 357.911H206.95V368.694H217.733V357.911Z" fill="#343669"/>
<path d="M228.516 357.911H217.733V368.694H228.516V357.911Z" fill="#343669"/>
<path d="M239.299 357.911H228.516V368.694H239.299V357.911Z" fill="#343669"/>
<path d="M250.082 357.911H239.299V368.694H250.082V357.911Z" fill="#343669"/>
<path d="M303.996 357.911H293.213V368.694H303.996V357.911Z" fill="#343669"/>
<path d="M314.779 357.911H303.996V368.694H314.779V357.911Z" fill="#343669"/>
<path d="M336.345 357.911H325.562V368.694H336.345V357.911Z" fill="#343669"/>
<path d="M357.911 357.911H347.128V368.694H357.911V357.911Z" fill="#343669"/>
<path d="M368.694 357.911H357.911V368.694H368.694V357.911Z" fill="#343669"/>
<path d="M379.477 357.911H368.694V368.694H379.477V357.911Z" fill="#343669"/>
<path d="M411.825 357.911H401.042V368.694H411.825V357.911Z" fill="#343669"/>
<path d="M433.391 357.911H422.608V368.694H433.391V357.911Z" fill="#343669"/>
<path d="M120.687 368.694H109.904V379.477H120.687V368.694Z" fill="#343669"/>
<path d="M131.47 368.694H120.687V379.477H131.47V368.694Z" fill="#343669"/>
<path d="M142.253 368.694H131.47V379.477H142.253V368.694Z" fill="#343669"/>
<path d="M163.818 368.694H153.036V379.477H163.818V368.694Z" fill="#343669"/>
<path d="M185.384 368.694H174.601V379.477H185.384V368.694Z" fill="#343669"/>
<path d="M196.167 368.694H185.384V379.477H196.167V368.694Z" fill="#343669"/>
<path d="M239.299 368.694H228.516V379.477H239.299V368.694Z" fill="#343669"/>
<path d="M250.082 368.694H239.299V379.477H250.082V368.694Z" fill="#343669"/>
<path d="M271.648 368.694H260.865V379.477H271.648V368.694Z" fill="#343669"/>
<path d="M303.996 368.694H293.213V379.477H303.996V368.694Z" fill="#343669"/>
<path d="M325.562 368.694H314.779V379.477H325.562V368.694Z" fill="#343669"/>
<path d="M379.477 368.694H368.694V379.477H379.477V368.694Z" fill="#343669"/>
<path d="M390.26 368.694H379.477V379.477H390.26V368.694Z" fill="#343669"/>
<path d="M401.043 368.694H390.26V379.477H401.043V368.694Z" fill="#343669"/>
<path d="M411.825 368.694H401.042V379.477H411.825V368.694Z" fill="#343669"/>
<path d="M422.608 368.694H411.825V379.477H422.608V368.694Z" fill="#343669"/>
<path d="M465.74 368.694H454.957V379.477H465.74V368.694Z" fill="#343669"/>
<path d="M206.95 379.477H196.167V390.26H206.95V379.477Z" fill="#343669"/>
<path d="M217.733 379.477H206.95V390.26H217.733V379.477Z" fill="#343669"/>
<path d="M239.299 379.477H228.516V390.26H239.299V379.477Z" fill="#343669"/>
<path d="M271.648 379.477H260.865V390.26H271.648V379.477Z" fill="#343669"/>
<path d="M314.779 379.477H303.996V390.26H314.779V379.477Z" fill="#343669"/>
<path d="M336.345 379.477H325.562V390.26H336.345V379.477Z" fill="#343669"/>
<path d="M357.911 379.477H347.128V390.26H357.911V379.477Z" fill="#343669"/>
<path d="M379.477 379.477H368.694V390.26H379.477V379.477Z" fill="#343669"/>
<path d="M422.608 379.477H411.825V390.26H422.608V379.477Z" fill="#343669"/>
<path d="M433.391 379.477H422.608V390.26H433.391V379.477Z" fill="#343669"/>
<path d="M444.174 379.477H433.391V390.26H444.174V379.477Z" fill="#343669"/>
<path d="M454.957 379.477H444.174V390.26H454.957V379.477Z" fill="#343669"/>
<path d="M465.74 379.477H454.957V390.26H465.74V379.477Z" fill="#343669"/>
<path d="M206.95 390.26H196.167V401.042H206.95V390.26Z" fill="#343669"/>
<path d="M217.733 390.26H206.95V401.042H217.733V390.26Z" fill="#343669"/>
<path d="M228.516 390.26H217.733V401.042H228.516V390.26Z" fill="#343669"/>
<path d="M239.299 390.26H228.516V401.042H239.299V390.26Z" fill="#343669"/>
<path d="M271.648 390.26H260.865V401.042H271.648V390.26Z" fill="#343669"/>
<path d="M336.345 390.26H325.562V401.042H336.345V390.26Z" fill="#343669"/>
<path d="M347.128 390.26H336.345V401.042H347.128V390.26Z" fill="#343669"/>
<path d="M357.911 390.26H347.128V401.042H357.911V390.26Z" fill="#343669"/>
<path d="M379.477 390.26H368.694V401.042H379.477V390.26Z" fill="#343669"/>
<path d="M401.043 390.26H390.26V401.042H401.043V390.26Z" fill="#343669"/>
<path d="M422.608 390.26H411.825V401.042H422.608V390.26Z" fill="#343669"/>
<path d="M433.391 390.26H422.608V401.042H433.391V390.26Z" fill="#343669"/>
<path d="M465.74 390.26H454.957V401.042H465.74V390.26Z" fill="#343669"/>
<path d="M206.95 401.043H196.167V411.825H206.95V401.043Z" fill="#343669"/>
<path d="M217.733 401.043H206.95V411.825H217.733V401.043Z" fill="#343669"/>
<path d="M228.516 401.043H217.733V411.825H228.516V401.043Z" fill="#343669"/>
<path d="M239.299 401.043H228.516V411.825H239.299V401.043Z" fill="#343669"/>
<path d="M250.082 401.043H239.299V411.825H250.082V401.043Z" fill="#343669"/>
<path d="M260.865 401.043H250.082V411.825H260.865V401.043Z" fill="#343669"/>
<path d="M282.43 401.043H271.648V411.825H282.43V401.043Z" fill="#343669"/>
<path d="M293.213 401.043H282.43V411.825H293.213V401.043Z" fill="#343669"/>
<path d="M314.779 401.043H303.996V411.825H314.779V401.043Z" fill="#343669"/>
<path d="M357.911 401.043H347.128V411.825H357.911V401.043Z" fill="#343669"/>
<path d="M368.694 401.043H357.911V411.825H368.694V401.043Z" fill="#343669"/>
<path d="M379.477 401.043H368.694V411.825H379.477V401.043Z" fill="#343669"/>
<path d="M422.608 401.043H411.825V411.825H422.608V401.043Z" fill="#343669"/>
<path d="M433.391 401.043H422.608V411.825H433.391V401.043Z" fill="#343669"/>
<path d="M454.957 401.043H444.174V411.825H454.957V401.043Z" fill="#343669"/>
<path d="M465.74 401.043H454.957V411.825H465.74V401.043Z" fill="#343669"/>
<path d="M228.516 411.825H217.733V422.608H228.516V411.825Z" fill="#343669"/>
<path d="M239.299 411.825H228.516V422.608H239.299V411.825Z" fill="#343669"/>
<path d="M250.082 411.825H239.299V422.608H250.082V411.825Z" fill="#343669"/>
<path d="M260.865 411.825H250.082V422.608H260.865V411.825Z" fill="#343669"/>
<path d="M271.648 411.825H260.865V422.608H271.648V411.825Z" fill="#343669"/>
<path d="M293.213 411.825H282.43V422.608H293.213V411.825Z" fill="#343669"/>
<path d="M314.779 411.825H303.996V422.608H314.779V411.825Z" fill="#343669"/>
<path d="M325.562 411.825H314.779V422.608H325.562V411.825Z" fill="#343669"/>
<path d="M336.345 411.825H325.562V422.608H336.345V411.825Z" fill="#343669"/>
<path d="M347.128 411.825H336.345V422.608H347.128V411.825Z" fill="#343669"/>
<path d="M357.911 411.825H347.128V422.608H357.911V411.825Z" fill="#343669"/>
<path d="M368.694 411.825H357.911V422.608H368.694V411.825Z" fill="#343669"/>
<path d="M379.477 411.825H368.694V422.608H379.477V411.825Z" fill="#343669"/>
<path d="M390.26 411.825H379.477V422.608H390.26V411.825Z" fill="#343669"/>
<path d="M401.043 411.825H390.26V422.608H401.043V411.825Z" fill="#343669"/>
<path d="M411.825 411.825H401.042V422.608H411.825V411.825Z" fill="#343669"/>
<path d="M422.608 411.825H411.825V422.608H422.608V411.825Z" fill="#343669"/>
<path d="M433.391 411.825H422.608V422.608H433.391V411.825Z" fill="#343669"/>
<path d="M239.299 422.608H228.516V433.391H239.299V422.608Z" fill="#343669"/>
<path d="M260.865 422.608H250.082V433.391H260.865V422.608Z" fill="#343669"/>
<path d="M303.996 422.608H293.213V433.391H303.996V422.608Z" fill="#343669"/>
<path d="M325.562 422.608H314.779V433.391H325.562V422.608Z" fill="#343669"/>
<path d="M336.345 422.608H325.562V433.391H336.345V422.608Z" fill="#343669"/>
<path d="M347.128 422.608H336.345V433.391H347.128V422.608Z" fill="#343669"/>
<path d="M357.911 422.608H347.128V433.391H357.911V422.608Z" fill="#343669"/>
<path d="M368.694 422.608H357.911V433.391H368.694V422.608Z" fill="#343669"/>
<path d="M390.26 422.608H379.477V433.391H390.26V422.608Z" fill="#343669"/>
<path d="M411.825 422.608H401.042V433.391H411.825V422.608Z" fill="#343669"/>
<path d="M422.608 422.608H411.825V433.391H422.608V422.608Z" fill="#343669"/>
<path d="M444.174 422.608H433.391V433.391H444.174V422.608Z" fill="#343669"/>
<path d="M454.957 422.608H444.174V433.391H454.957V422.608Z" fill="#343669"/>
<path d="M206.95 433.391H196.167V444.174H206.95V433.391Z" fill="#343669"/>
<path d="M239.299 433.391H228.516V444.174H239.299V433.391Z" fill="#343669"/>
<path d="M282.43 433.391H271.648V444.174H282.43V433.391Z" fill="#343669"/>
<path d="M293.213 433.391H282.43V444.174H293.213V433.391Z" fill="#343669"/>
<path d="M336.345 433.391H325.562V444.174H336.345V433.391Z" fill="#343669"/>
<path d="M347.128 433.391H336.345V444.174H347.128V433.391Z" fill="#343669"/>
<path d="M357.911 433.391H347.128V444.174H357.911V433.391Z" fill="#343669"/>
<path d="M379.477 433.391H368.694V444.174H379.477V433.391Z" fill="#343669"/>
<path d="M422.608 433.391H411.825V444.174H422.608V433.391Z" fill="#343669"/>
<path d="M444.174 433.391H433.391V444.174H444.174V433.391Z" fill="#343669"/>
<path d="M454.957 433.391H444.174V444.174H454.957V433.391Z" fill="#343669"/>
<path d="M465.74 433.391H454.957V444.174H465.74V433.391Z" fill="#343669"/>
<path d="M217.733 444.174H206.95V454.957H217.733V444.174Z" fill="#343669"/>
<path d="M228.516 444.174H217.733V454.957H228.516V444.174Z" fill="#343669"/>
<path d="M239.299 444.174H228.516V454.957H239.299V444.174Z" fill="#343669"/>
<path d="M250.082 444.174H239.299V454.957H250.082V444.174Z" fill="#343669"/>
<path d="M293.213 444.174H282.43V454.957H293.213V444.174Z" fill="#343669"/>
<path d="M303.996 444.174H293.213V454.957H303.996V444.174Z" fill="#343669"/>
<path d="M314.779 444.174H303.996V454.957H314.779V444.174Z" fill="#343669"/>
<path d="M325.562 444.174H314.779V454.957H325.562V444.174Z" fill="#343669"/>
<path d="M368.694 444.174H357.911V454.957H368.694V444.174Z" fill="#343669"/>
<path d="M379.477 444.174H368.694V454.957H379.477V444.174Z" fill="#343669"/>
<path d="M390.26 444.174H379.477V454.957H390.26V444.174Z" fill="#343669"/>
<path d="M433.391 444.174H422.608V454.957H433.391V444.174Z" fill="#343669"/>
<path d="M228.516 454.957H217.733V465.74H228.516V454.957Z" fill="#343669"/>
<path d="M239.299 454.957H228.516V465.74H239.299V454.957Z" fill="#343669"/>
<path d="M250.082 454.957H239.299V465.74H250.082V454.957Z" fill="#343669"/>
<path d="M271.648 454.957H260.865V465.74H271.648V454.957Z" fill="#343669"/>
<path d="M282.43 454.957H271.648V465.74H282.43V454.957Z" fill="#343669"/>
<path d="M336.345 454.957H325.562V465.74H336.345V454.957Z" fill="#343669"/>
<path d="M347.128 454.957H336.345V465.74H347.128V454.957Z" fill="#343669"/>
<path d="M357.911 454.957H347.128V465.74H357.911V454.957Z" fill="#343669"/>
<path d="M379.477 454.957H368.694V465.74H379.477V454.957Z" fill="#343669"/>
<path d="M390.26 454.957H379.477V465.74H390.26V454.957Z" fill="#343669"/>
<path d="M422.608 454.957H411.825V465.74H422.608V454.957Z" fill="#343669"/>
<path d="M433.391 454.957H422.608V465.74H433.391V454.957Z" fill="#343669"/>
<path d="M465.74 454.957H454.957V465.74H465.74V454.957Z" fill="#343669"/>
<path d="M174.062 121.226H121.226V174.062H174.062V121.226Z" fill="#343669"/>
<path d="M174.062 109.904H121.226H109.904V121.226V174.062V185.384H121.226H174.062H185.384V174.062V121.226V109.904H174.062ZM174.062 174.062H121.226V121.226H174.062V174.062Z" fill="#343669"/>
<path d="M454.418 121.226H401.582V174.062H454.418V121.226Z" fill="#343669"/>
<path d="M454.418 109.904H401.582H390.26V121.226V174.062V185.384H401.582H454.418H465.74V174.062V121.226V109.904H454.418ZM454.418 174.062H401.582V121.226H454.418V174.062Z" fill="#343669"/>
<path d="M174.062 401.582H121.226V454.418H174.062V401.582Z" fill="#343669"/>
<path d="M174.062 390.26H121.226H109.904V401.582V454.418V465.74H121.226H174.062H185.384V454.418V401.582V390.26H174.062ZM174.062 454.418H121.226V401.582H174.062V454.418Z" fill="#343669"/>
<path d="M163.818 131.47H131.47V163.818H163.818V131.47Z" fill="white"/>
<path d="M444.174 131.47H411.825V163.818H444.174V131.47Z" fill="white"/>
<path d="M163.818 411.825H131.47V444.174H163.818V411.825Z" fill="white"/>
<ellipse cx="287.822" cy="287.773" rx="59.306" ry="59.2574" fill="#343669"/>
<path d="M323.38 289.673C323.053 289.674 322.73 289.605 322.432 289.473L302.56 280.581C302.153 280.399 301.807 280.102 301.564 279.727C301.322 279.352 301.193 278.915 301.193 278.469C301.193 278.022 301.322 277.586 301.564 277.211C301.807 276.836 302.153 276.539 302.56 276.356L322.432 267.496C322.993 267.247 323.63 267.23 324.203 267.449C324.776 267.668 325.239 268.105 325.491 268.664C325.74 269.225 325.756 269.862 325.536 270.435C325.316 271.008 324.878 271.47 324.318 271.721L309.178 278.472L324.321 285.248C324.805 285.463 325.201 285.839 325.441 286.311C325.682 286.783 325.753 287.323 325.643 287.841C325.533 288.359 325.248 288.824 324.836 289.158C324.424 289.491 323.91 289.673 323.38 289.673V289.673Z" fill="#67BECE"/>
<path d="M296.297 321.93C274.45 321.93 255.35 307.194 249.859 286.093C249.704 285.499 249.792 284.869 250.102 284.34C250.413 283.811 250.921 283.427 251.515 283.272C252.109 283.118 252.74 283.205 253.269 283.516C253.799 283.826 254.183 284.334 254.338 284.927C256.76 294.202 262.193 302.413 269.787 308.272C277.38 314.131 286.704 317.307 296.297 317.304C296.911 317.304 297.5 317.548 297.934 317.981C298.369 318.415 298.612 319.004 298.612 319.617C298.612 320.231 298.369 320.819 297.934 321.253C297.5 321.686 296.911 321.93 296.297 321.93V321.93Z" fill="#3F54A3"/>
<path d="M288.322 302.722C287.708 302.722 287.119 302.479 286.685 302.045C286.251 301.611 286.007 301.023 286.007 300.409V256.439C286.007 255.826 286.251 255.237 286.685 254.803C287.119 254.37 287.708 254.126 288.322 254.126C288.936 254.126 289.524 254.37 289.959 254.803C290.393 255.237 290.637 255.826 290.637 256.439V300.409C290.637 301.023 290.393 301.611 289.959 302.045C289.524 302.479 288.936 302.722 288.322 302.722Z" fill="#67BECE"/>
</g>
<defs>
<clipPath id="clip0_5_13161">
<rect width="398.968" height="398.968" fill="white" transform="translate(88.338 88.338)"/>
</clipPath>
</defs>
</svg>
